<svg xmlns="http://www.w3.org/2000/svg" width="512" height="512" viewBox="0 0 512 512" fill="none">
<defs>
<linearGradient id="blue" x1="0" y1="0" x2="1" y2="1"><stop offset="0" stop-color="#164687"/><stop offset="1" stop-color="#021A53"/></linearGradient>
<linearGradient id="blue2" x1="0" y1="0" x2="1" y2="1"><stop offset="0" stop-color="#2D67B1"/><stop offset="1" stop-color="#164687"/></linearGradient>
<linearGradient id="gold" x1="0" y1="0" x2="1" y2="1"><stop offset="0" stop-color="#D8B36A"/><stop offset="1" stop-color="#B68A35"/></linearGradient>
<linearGradient id="gray" x1="0" y1="0" x2="1" y2="1"><stop offset="0" stop-color="#E8EDF3"/><stop offset="1" stop-color="#C8D1DC"/></linearGradient>
<filter id="shadow" x="-50%" y="-50%" width="200%" height="200%"><feDropShadow dx="0" dy="7" stdDeviation="8" flood-opacity=".16"/></filter>
</defs>

<g filter="url(#shadow)"><rect x="108" y="78" width="296" height="214" rx="22" fill="white" stroke="#021A53" stroke-width="6"/></g>
<g filter="url(#shadow)"><rect x="198" y="46" width="116" height="42" rx="14" fill="url(#blue)"/><circle cx="256" cy="67" r="7" fill="white"/></g>

<g filter="url(#shadow)">
<rect x="148" y="122" width="216" height="122" rx="16" fill="url(#blue)"/>
<!-- Equipo -->
<rect x="164" y="146" width="62" height="43" rx="6" fill="white"/>
<rect x="171" y="153" width="48" height="29" rx="3" fill="url(#gray)"/>
<path d="M157 193h76l-8 10h-60z" fill="white"/>
<rect x="184" y="196" width="22" height="3" rx="1.5" fill="#164687"/>
<!-- Modelo -->
<rect x="244" y="142" width="52" height="70" rx="8" fill="white"/>
<rect x="255" y="155" width="30" height="4" rx="2" fill="#164687"/>
<rect x="255" y="168" width="24" height="4" rx="2" fill="#164687"/>
<rect x="255" y="181" width="28" height="4" rx="2" fill="#164687"/>
<rect x="255" y="194" width="18" height="8" rx="3" fill="url(#gold)"/>
<!-- Asociación financiera -->
<path d="M226 168h18" stroke="white" stroke-width="3.5" stroke-linecap="round" stroke-dasharray="5 5"/>
<circle cx="322" cy="169" r="25" fill="white"/>
<circle cx="322" cy="169" r="13" fill="url(#gold)"/>
<path d="M322 158v22M315 162c0-4 14-4 14 0s-14 4-14 8 14 4 14 0" stroke="white" stroke-width="2" stroke-linecap="round"/>
<path d="M296 169h10" stroke="white" stroke-width="3" stroke-dasharray="5 5"/>
</g>

<g filter="url(#shadow)">
<circle cx="120" cy="360" r="52" fill="url(#blue2)"/>
<circle cx="116" cy="357" r="20" fill="white"/>
<path d="M107 365l18-18 7 7-18 18-10 2z" fill="url(#gold)"/>
<path d="M109 370l-5 1 1-5z" fill="#164687"/>
<circle cx="145" cy="335" r="10" fill="url(#gold)"/>
<path d="M145 330v10M140 335h10" stroke="white" stroke-width="2.5" stroke-linecap="round"/>
</g>

<g filter="url(#shadow)">
<rect x="214" y="312" width="84" height="122" rx="16" fill="url(#gray)"/>
<rect x="228" y="327" width="56" height="15" rx="4" fill="white"/>
<rect x="228" y="350" width="56" height="15" rx="4" fill="white"/>
<rect x="228" y="373" width="56" height="15" rx="4" fill="white"/>
<rect x="228" y="396" width="56" height="15" rx="4" fill="white"/>
<circle cx="276" cy="403" r="6" fill="url(#gold)"/>
</g>

<g filter="url(#shadow)">
<circle cx="392" cy="360" r="52" fill="url(#blue2)"/>
<rect x="366" y="340" width="52" height="40" rx="12" fill="white"/>
<circle cx="383" cy="360" r="10" fill="url(#gold)"/>
<path d="M383 353v14" stroke="white" stroke-width="2.5" stroke-linecap="round"/>
<path d="M388 350c5 3 8 8 8 14 0 9-7 16-16 16-7 0-13-4-15-10" stroke="#164687" stroke-width="3" stroke-linecap="round"/>
<circle cx="418" cy="332" r="10" fill="#B68A35"/>
<path d="M414 328l8 8M422 328l-8 8" stroke="white" stroke-width="2" stroke-linecap="round"/>
</g>

<g filter="url(#shadow)"><rect x="168" y="448" width="176" height="28" rx="12" fill="url(#blue)"/></g>
<rect x="108" y="112" width="14" height="150" rx="7" fill="url(#gold)" opacity=".28"/>
</svg>