<svg xmlns="http://www.w3.org/2000/svg" width="512" height="512" viewBox="0 0 512 512" fill="none">
<defs>
<linearGradient id="blue" x1="120" y1="80" x2="390" y2="440" gradientUnits="userSpaceOnUse"><stop stop-color="#2D67B1"/><stop offset="1" stop-color="#021A53"/></linearGradient>
<linearGradient id="gold" x1="320" y1="150" x2="410" y2="230" gradientUnits="userSpaceOnUse"><stop stop-color="#D8B36A"/><stop offset="1" stop-color="#B78B39"/></linearGradient>
<linearGradient id="gray" x1="210" y1="310" x2="300" y2="430" gradientUnits="userSpaceOnUse"><stop stop-color="#EEF2F6"/><stop offset="1" stop-color="#C8D2DE"/></linearGradient>
<filter id="shadow" x="-30%" y="-30%" width="160%" height="170%"><feDropShadow dx="0" dy="8" stdDeviation="8" flood-opacity=".16"/></filter>
</defs>

<!-- Marco -->
<g filter="url(#shadow)">
<rect x="108" y="78" width="296" height="214" rx="22" fill="white" stroke="#021A53" stroke-width="6"/>
<rect x="198" y="46" width="116" height="42" rx="14" fill="url(#blue)"/>
<circle cx="256" cy="67" r="7" fill="white"/>
</g>
<rect x="108" y="112" width="14" height="150" rx="7" fill="url(#gold)" opacity=".30"/>

<!-- Registro masivo / Importación por lote -->
<g filter="url(#shadow)">
<rect x="148" y="122" width="216" height="122" rx="16" fill="url(#blue)"/>

<!-- Archivo CSV -->
<path d="M166 139H218L232 153V221H166V139Z" fill="white"/>
<path d="M218 139V153H232" fill="#E7ECF2"/>
<rect x="177" y="157" width="38" height="5" rx="2.5" fill="#164687"/>
<path d="M177 171H220M177 183H220M177 195H220M177 207H211" stroke="#B9C5D2" stroke-width="4" stroke-linecap="round"/>
<circle cx="174" cy="171" r="2.5" fill="#D8B36A"/>
<circle cx="174" cy="183" r="2.5" fill="#2D67B1"/>
<circle cx="174" cy="195" r="2.5" fill="#2D67B1"/>
<circle cx="174" cy="207" r="2.5" fill="#D8B36A"/>

<!-- Indicador CSV -->
<rect x="178" y="213" width="39" height="12" rx="4" fill="url(#gold)"/>
<path d="M186 219H209" stroke="white" stroke-width="2.5" stroke-linecap="round"/>

<!-- Flecha de importación -->
<path d="M237 182H282" stroke="white" stroke-width="5" stroke-linecap="round"/>
<path d="M272 172L284 182L272 192" stroke="white" stroke-width="5" stroke-linecap="round" stroke-linejoin="round"/>

<!-- Lote de activos -->
<rect x="292" y="143" width="55" height="78" rx="9" fill="white"/>
<rect x="303" y="154" width="33" height="13" rx="4" fill="#164687"/>
<rect x="303" y="173" width="33" height="9" rx="3" fill="#E7ECF2"/>
<rect x="303" y="188" width="33" height="9" rx="3" fill="#E7ECF2"/>
<rect x="303" y="203" width="22" height="9" rx="3" fill="#E7ECF2"/>
<circle cx="334" cy="207" r="9" fill="url(#gold)"/>
<path d="M330 207L333 210L339 203" stroke="white" stroke-width="2.5" stroke-linecap="round" stroke-linejoin="round"/>
</g>

<!-- Carga institucional -->
<g filter="url(#shadow)">
<circle cx="120" cy="360" r="52" fill="url(#blue)"/>
<!-- Edificio institucional -->
<path d="M91 349L120 334L149 349V385H91V349Z" fill="white"/>
<path d="M86 349H154" stroke="#021A53" stroke-width="5" stroke-linecap="round"/>
<rect x="114" y="363" width="12" height="22" rx="2" fill="url(#gold)" stroke="#021A53" stroke-width="3"/>
<rect x="100" y="358" width="9" height="11" rx="2" fill="#2D67B1"/>
<rect x="131" y="358" width="9" height="11" rx="2" fill="#2D67B1"/>
<!-- símbolo de carga -->
<path d="M143 328V344M136 337L143 344L150 337" stroke="url(#gold)" stroke-width="4" stroke-linecap="round" stroke-linejoin="round"/>
</g>

<!-- Importación por lote -->
<g filter="url(#shadow)">
<rect x="214" y="312" width="84" height="122" rx="16" fill="url(#gray)"/>
<!-- capas del lote -->
<rect x="229" y="329" width="54" height="15" rx="4" fill="white"/>
<rect x="229" y="350" width="54" height="15" rx="4" fill="white"/>
<rect x="229" y="371" width="54" height="15" rx="4" fill="white"/>
<path d="M237 399H275" stroke="#164687" stroke-width="5" stroke-linecap="round"/>
<path d="M256 392V417M248 409L256 417L264 409" stroke="url(#gold)" stroke-width="4" stroke-linecap="round" stroke-linejoin="round"/>
</g>

<!-- Activos registrados -->
<g filter="url(#shadow)">
<circle cx="392" cy="360" r="52" fill="url(#blue)"/>
<!-- tres activos -->
<rect x="365" y="339" width="32" height="23" rx="4" fill="white"/>
<rect x="361" y="363" width="40" height="6" rx="3" fill="white"/>
<rect x="402" y="342" width="27" height="22" rx="4" fill="white"/>
<rect x="399" y="365" width="33" height="5" rx="2.5" fill="white"/>
<rect x="375" y="379" width="42" height="20" rx="4" fill="#EEF2F6"/>
<path d="M381 386H411" stroke="#164687" stroke-width="3" stroke-linecap="round"/>
<circle cx="419" cy="330" r="11" fill="url(#gold)"/>
<path d="M414 330L418 334L425 326" stroke="white" stroke-width="3" stroke-linecap="round" stroke-linejoin="round"/>
</g>

<!-- Base -->
<g filter="url(#shadow)">
<rect x="168" y="448" width="176" height="28" rx="12" fill="url(#blue)"/>
</g>
</svg>